<svg width="100" height="13" viewBox="0 0 100 25" fill="none" xmlns="http://www.w3.org/2000/svg">
<path d="M4.79816 14.4828C9.14495 10.6054 13.4917 10.6054 17.8385 14.4828C22.1853 18.3602 26.5321 18.3602 30.8789 14.4828C35.2257 10.6054 39.5725 10.6054 43.9193 14.4828C48.2661 18.3602 52.6128 18.3602 56.9596 14.4828C61.3064 10.6054 65.6532 10.6054 70 14.4828M8.59635 19.6379C12.4367 13.8219 16.2771 13.8219 20.1175 19.6379C23.9578 25.454 27.7982 25.454 31.6386 19.6379C35.4789 13.8219 39.3193 13.8219 43.1597 19.6379C47 25.454 50.8404 25.454 54.6808 19.6379C58.5211 13.8219 62.3615 13.8219 66.2019 19.6379M1 3.90805C5.34679 0.0306513 9.69358 0.0306513 14.0404 3.90805C18.3872 7.78544 22.7339 7.78544 27.0807 3.90805C31.4275 0.0306513 35.7743 0.0306513 40.1211 3.90805C44.4679 7.78544 48.8147 7.78544 53.1615 3.90805C57.5083 0.0306513 61.855 0.0306513 66.2018 3.90805M4.79816 9.06322C8.63853 3.24713 12.4789 3.24713 16.3193 9.06322C20.1596 14.8793 24 14.8793 27.8404 9.06322C31.6807 3.24713 35.5211 3.24713 39.3615 9.06322C43.2018 14.8793 47.0422 14.8793 50.8826 9.06322C54.7229 3.24713 58.5633 3.24713 62.4037 9.06322" stroke="#D29F24" stroke-width="2"/>
</svg>
